# xmcd
#
# Track frame offsets: 
#        182
#        9707
#        22240
#        33755
#        45770
#        54437
#        65702
#        76707
#        89680
#        100240
#        112352
#        122350
#        133480
#        142657
#        151880
#        165425
#        175157
#        186962
#        198670
#        209220
#
# Disc length: 2963 seconds
#
# Revision: 9
# Processed by: cddbd v1.5.2PL0 Copyright (c) Steve Scherf et al.
# Submitted via: ExactAudioCopy v0.95b4
#
DISCID=180b9114
DTITLE=Sam Cooke - The Wonderful World Of
DYEAR=1900
DGENRE=Oldies
TTITLE0=Wonderful World
TTITLE1=You Send Me
TTITLE2=Chain Gang
TTITLE3=Twistin' The Night Away
TTITLE4=Only Sixteen
TTITLE5=Cupid
TTITLE6=Having A Party
TTITLE7=Win Your Love For Me
TTITLE8=Just For You
TTITLE9=Bring It On Home To Me
TTITLE10=I'll Come Running Back To You
TTITLE11=Sad Mood
TTITLE12=That's Heaven To Me
TTITLE13=Touch The Hem Of His Garment
TTITLE14=Somebody Have Mercy
TTITLE15=Soothe Me
TTITLE16=Nothing Can Change This Love
TTITLE17=Everybody Loves To Cha Cha Cha
TTITLE18=Love You Most Of All
TTITLE19=You Were Made For Me
EXTD=
EXTT0=
EXTT1=
EXTT2=
EXTT3=
EXTT4=
EXTT5=
EXTT6=
EXTT7=
EXTT8=
EXTT9=
EXTT10=
EXTT11=
EXTT12=
EXTT13=
EXTT14=
EXTT15=
EXTT16=
EXTT17=
EXTT18=
EXTT19=
PLAYORDER=
